<?xml version="1.0" standalone="no"?>
<!DOCTYPE svg PUBLIC "-//W3C//DTD SVG 20010904//EN"
 "http://www.w3.org/TR/2001/REC-SVG-20010904/DTD/svg10.dtd">
<svg version="1.0" xmlns="http://www.w3.org/2000/svg"
 width="442.000000pt" height="442.000000pt" viewBox="0 0 442.000000 442.000000"
 preserveAspectRatio="xMidYMid meet">
<metadata>
Created by potrace 1.14, written by Peter Selinger 2001-2017
</metadata>
<g transform="translate(0.000000,442.000000) scale(0.100000,-0.100000)"
fill="#000000" stroke="none">
<path d="M3395 3100 c3 -5 8 -10 11 -10 2 0 4 5 4 10 0 6 -5 10 -11 10 -5 0
-7 -4 -4 -10z"/>
<path d="M3356 3067 c3 -10 9 -15 12 -12 3 3 0 11 -7 18 -10 9 -11 8 -5 -6z"/>
<path d="M3509 3023 c-13 -16 -12 -17 4 -4 16 13 21 21 13 21 -2 0 -10 -8 -17
-17z"/>
<path d="M2807 3024 c-1 -1 -63 -5 -137 -8 -74 -4 -146 -8 -160 -10 -28 -5
-125 -16 -185 -22 -80 -8 -292 -55 -365 -80 -94 -33 -176 -74 -326 -164 -71
-42 -129 -70 -146 -70 -19 0 -39 -12 -66 -39 -55 -57 -90 -70 -274 -107 -13
-2 -59 -12 -103 -22 -50 -11 -130 -19 -210 -20 -107 -2 -175 -7 -215 -17 -81
-20 -189 -69 -234 -107 -130 -107 -183 -154 -195 -172 -8 -11 -17 -23 -20 -26
-4 -3 -16 -25 -27 -50 -93 -195 -87 -175 -81 -256 4 -43 15 -91 27 -114 21
-42 26 -70 11 -70 -5 0 -12 -11 -15 -25 -4 -14 -11 -25 -16 -25 -6 0 -10 -11
-10 -25 0 -14 5 -25 11 -25 5 0 7 -4 4 -10 -3 -5 1 -10 10 -10 9 0 14 -4 11
-8 -2 -4 0 -14 6 -22 8 -13 9 -12 5 2 -5 13 0 16 20 14 13 -2 29 -9 34 -17 6
-10 9 -10 9 -1 0 6 5 12 11 12 5 0 7 -6 3 -12 -6 -10 -5 -10 8 -1 8 7 18 9 22
5 7 -6 25 -9 99 -14 18 -1 26 -6 23 -14 -7 -19 15 -29 28 -13 6 8 22 13 36 12
66 -4 80 -8 76 -20 -3 -7 -1 -15 5 -18 5 -4 9 -3 8 2 -3 19 2 33 12 33 6 0 8
-7 5 -17 -6 -15 -4 -15 14 2 22 20 27 9 6 -17 -7 -10 -17 -14 -21 -10 -5 4 -5
1 0 -7 6 -10 12 -8 29 12 18 22 28 25 78 23 32 -1 61 -6 65 -11 5 -4 2 -5 -6
0 -9 5 -12 4 -7 -3 3 -5 0 -13 -6 -15 -9 -4 -10 -6 -1 -6 6 -1 18 7 25 17 9
12 27 17 60 17 36 0 44 -2 36 -12 -14 -17 2 -16 26 2 13 10 24 11 37 5 10 -6
20 -6 23 -1 3 5 22 8 41 7 19 -1 35 3 35 8 0 5 3 7 6 4 3 -4 0 -17 -7 -30 -6
-12 -8 -20 -4 -16 4 4 15 3 24 -2 13 -7 17 -4 18 13 2 17 0 18 -7 7 -5 -8 -12
-11 -15 -8 -13 13 6 27 33 24 19 -1 26 -7 24 -18 -4 -26 11 -28 38 -7 14 11
18 18 10 17 -8 -2 -21 -10 -27 -18 -11 -13 -12 -11 -9 9 3 23 26 44 26 24 0
-5 15 -8 33 -7 17 1 32 3 32 4 0 1 8 3 18 5 9 2 15 -1 11 -6 -3 -5 2 -9 11 -9
9 0 14 4 11 8 -3 5 1 9 9 9 8 0 17 -7 19 -14 3 -8 1 -11 -5 -8 -12 8 -64 -24
-54 -33 3 -4 10 0 14 7 5 7 14 10 21 6 8 -5 7 -12 -5 -25 -12 -14 -13 -20 -4
-26 7 -4 10 -3 6 3 -4 6 0 16 8 23 12 10 13 16 4 27 -10 12 -7 13 19 8 20 -3
32 -1 32 5 0 6 -4 9 -9 6 -5 -3 -11 0 -14 7 -5 14 49 18 69 5 6 -4 14 -4 18
-1 10 10 46 11 40 1 -6 -10 10 -11 20 -1 10 11 56 11 62 1 3 -4 11 -5 17 -1
19 12 37 12 37 1 0 -6 6 -5 15 2 9 7 18 10 22 6 3 -3 1 -6 -5 -6 -6 0 -9 -8
-6 -17 5 -15 4 -16 -5 -3 -6 8 -11 10 -11 4 0 -6 12 -21 27 -35 15 -13 22 -17
15 -8 -6 9 -9 19 -5 22 10 10 35 -31 27 -45 -4 -7 -3 -8 5 -4 7 4 9 17 6 29
-6 21 -5 21 9 3 14 -18 15 -18 13 2 -1 13 -7 19 -19 17 -10 -2 -20 1 -23 6 -4
5 -11 7 -16 4 -5 -4 -9 -2 -9 2 0 5 9 14 19 20 17 10 21 10 25 -5 4 -12 17
-17 41 -18 19 0 35 3 35 8 0 4 5 8 11 8 8 0 9 -4 0 -13 -6 -8 -7 -17 -3 -21 4
-4 2 -7 -3 -5 -15 3 -45 -12 -45 -24 0 -5 8 -3 18 6 26 23 28 24 51 3 12 -11
21 -16 21 -12 0 4 9 2 19 -4 14 -7 22 -7 27 2 5 7 3 8 -6 3 -8 -5 -11 -4 -7 2
9 14 77 -8 77 -24 0 -6 4 -15 10 -18 6 -3 7 1 4 9 -3 9 -1 16 5 16 6 0 11 -4
11 -9 0 -5 10 -7 22 -3 16 4 19 2 13 -8 -6 -9 -4 -11 6 -4 8 4 32 9 54 10 45
2 82 10 120 24 20 8 25 7 20 -3 -4 -6 -1 -5 7 3 7 8 30 24 51 35 21 11 58 39
81 62 29 28 47 39 56 33 18 -11 40 -1 33 16 -3 8 -9 11 -14 8 -5 -3 -6 -11 -3
-17 4 -8 2 -7 -7 1 -12 11 -12 14 1 22 9 6 20 4 29 -3 12 -10 13 -8 8 13 -4
14 -4 19 -1 13 7 -16 25 -17 21 -1 -1 7 3 12 8 13 6 0 16 4 23 9 7 4 16 5 19
2 3 -3 14 -1 24 5 14 7 19 6 19 -2 0 -9 4 -8 14 0 12 10 17 8 26 -9 12 -22 5
-44 -12 -34 -7 4 -6 9 2 14 8 5 7 9 -5 13 -10 5 -14 3 -9 -5 5 -7 3 -8 -6 -3
-9 6 -11 4 -5 -5 5 -9 4 -11 -4 -6 -6 4 -9 12 -6 17 13 20 -24 8 -39 -13 l-17
-23 12 24 c9 19 8 22 -3 19 -20 -7 -8 -68 14 -68 5 0 6 5 2 12 -5 8 -2 9 10 5
9 -4 14 -3 11 2 -3 5 -1 12 4 15 5 4 12 -3 16 -14 3 -11 11 -20 17 -20 6 0 6
6 -2 15 -7 9 -10 18 -7 21 3 3 12 -3 19 -15 7 -12 17 -21 22 -21 4 0 3 6 -3
13 -6 8 -8 17 -4 20 3 4 12 -1 20 -11 12 -16 13 -15 6 3 -6 18 -5 19 12 5 11
-9 16 -10 11 -2 -5 8 -1 12 11 12 15 0 16 2 3 11 -12 8 -11 9 5 7 13 -3 19
-11 18 -23 -1 -11 0 -15 3 -8 3 7 11 10 18 7 7 -3 19 2 26 11 12 14 15 14 31
-1 10 -9 16 -22 12 -28 -3 -7 -1 -6 7 1 11 10 9 16 -11 32 -13 11 -19 20 -12
21 6 0 15 -5 18 -11 5 -7 15 -5 30 5 21 14 24 14 37 -1 11 -14 11 -16 -3 -11
-9 3 -22 2 -30 -3 -12 -7 6 -7 54 0 4 0 7 6 7 12 0 5 -4 7 -10 4 -5 -3 -10 -1
-10 4 0 6 6 11 13 11 8 0 7 4 -3 11 -12 8 -11 9 5 7 13 -3 19 -10 17 -23 -2
-16 -1 -17 7 -5 5 8 7 18 5 22 -3 4 2 8 10 8 9 0 15 -3 15 -7 -6 -36 25 -40
59 -9 20 18 25 18 33 6 8 -11 12 -12 16 -2 2 6 9 12 14 12 6 0 7 -4 4 -10 -3
-5 -1 -10 5 -10 7 0 10 7 6 15 -7 18 5 20 22 3 16 -16 15 -31 0 -22 -7 4 -10
3 -5 -1 4 -5 19 -9 33 -10 21 -1 23 1 10 11 -9 6 -12 14 -8 18 4 4 1 6 -7 4
-7 -2 -16 3 -18 10 -3 7 1 10 10 6 8 -3 17 2 21 12 5 13 9 14 21 4 8 -7 15
-17 15 -22 0 -6 -7 -5 -15 2 -10 9 -15 9 -15 1 0 -6 5 -11 11 -11 5 0 8 -4 5
-8 -3 -5 1 -9 9 -9 8 0 12 3 10 7 -2 4 7 18 20 30 26 25 36 12 10 -14 -22 -22
-18 -32 5 -11 11 10 20 25 20 34 0 13 2 13 9 3 7 -11 9 -11 14 0 4 11 -8 14
-59 13 -35 -1 -64 2 -64 6 0 11 21 15 65 14 22 -1 43 4 47 9 5 7 8 6 8 -3 0
-10 3 -11 14 -2 8 6 18 11 22 10 5 -1 11 0 14 1 23 9 36 5 36 -10 0 -15 -4
-16 -19 -8 -15 8 -18 7 -12 -3 5 -7 4 -10 -2 -6 -6 4 -19 -1 -29 -9 -14 -11
-15 -17 -6 -20 6 -3 10 -10 6 -15 -3 -5 0 -9 7 -9 10 0 10 -3 1 -12 -7 -7 -12
-17 -12 -23 1 -11 24 24 26 40 0 6 2 16 2 23 1 7 7 10 14 6 7 -4 8 -3 4 4 -12
19 8 14 26 -7 9 -11 13 -22 10 -26 -4 -3 2 -3 12 1 10 4 13 10 8 13 -5 3 -8
14 -6 23 1 10 -3 21 -8 25 -7 4 -8 1 -3 -7 6 -9 4 -11 -4 -5 -20 12 13 39 49
41 24 1 28 -2 27 -20 -1 -11 3 -23 8 -25 6 -2 15 -11 21 -19 6 -8 17 -12 25
-9 10 4 9 6 -4 6 -15 1 -16 4 -7 22 7 11 9 23 6 27 -3 3 -6 -1 -6 -9 0 -12 -2
-11 -11 1 -10 13 -10 13 -6 -1 3 -9 -1 -16 -8 -16 -10 0 -11 5 -5 17 5 10 7
20 4 22 -3 3 2 8 10 11 10 4 13 1 10 -7 -3 -7 2 -13 11 -13 9 0 14 5 12 11 -3
6 7 12 21 13 18 1 21 -1 11 -8 -14 -8 -12 -10 14 -13 6 -1 11 -12 10 -24 -2
-12 2 -22 8 -22 5 0 7 -4 4 -10 -3 -6 1 -7 10 -3 13 4 14 8 4 14 -7 4 -13 16
-15 26 -1 10 -5 27 -9 38 -5 14 -4 16 3 6 7 -10 11 -10 17 -1 4 6 14 8 24 5
28 -12 61 -16 60 -8 -3 21 2 33 12 27 8 -4 7 -9 -2 -15 -8 -5 -12 -9 -9 -10 3
0 13 -2 23 -4 11 -2 17 2 15 12 -2 9 4 18 12 20 13 4 13 3 0 -6 -8 -6 -12 -11
-7 -12 24 -5 33 -3 45 8 7 7 18 13 24 13 6 0 0 -9 -13 -20 -27 -22 -14 -27 15
-5 10 8 24 12 29 8 7 -4 8 1 4 13 -7 18 -6 18 7 1 11 -14 15 -15 20 -5 3 7 3
2 0 -10 -5 -22 -4 -23 16 -12 18 10 20 14 9 22 -12 8 -11 9 1 5 8 -2 16 -9 16
-15 1 -7 2 -17 3 -23 0 -5 5 -8 11 -4 5 3 7 13 4 23 -5 14 -4 14 4 3 6 -8 7
-21 4 -30 -5 -13 -3 -14 9 -4 13 10 19 9 35 -5 11 -9 26 -18 34 -20 22 -5 33
-19 15 -19 -8 0 -15 5 -15 10 0 5 -8 3 -17 -4 -9 -8 -14 -9 -11 -4 3 6 0 16
-8 23 -11 10 -14 10 -14 0 0 -9 -3 -9 -10 2 -5 8 -10 10 -10 5 0 -6 6 -17 13
-24 10 -10 9 -12 -3 -11 -37 5 -44 1 -26 -19 18 -19 56 -25 56 -8 0 5 -10 5
-22 2 -22 -7 -22 -6 -6 11 14 14 20 15 32 5 8 -7 13 -18 10 -26 -3 -7 -1 -16
5 -20 7 -4 8 1 4 12 -6 16 -5 17 13 3 17 -13 18 -13 7 0 -11 15 -4 43 11 41 3
-1 7 0 9 0 1 1 56 3 122 5 66 2 131 6 145 10 14 4 29 6 33 5 5 -1 6 3 2 9 -3
5 0 10 7 10 8 0 22 14 31 30 10 17 23 30 28 30 6 0 8 4 4 9 -3 5 -1 12 4 16 6
3 13 25 17 50 3 25 16 55 30 70 22 24 36 63 48 130 3 17 8 41 11 55 7 29 7
208 0 220 -4 7 -8 28 -20 118 -9 64 -48 172 -64 177 -9 2 -47 11 -86 19 -38 8
-79 16 -90 19 -11 3 -51 12 -89 21 -52 12 -85 28 -135 65 -36 27 -87 62 -113
78 -26 17 -44 34 -40 38 4 5 2 5 -5 1 -12 -7 -52 11 -65 29 -4 6 -8 7 -8 3 0
-4 -21 4 -46 17 -26 14 -53 25 -60 25 -8 0 -14 3 -14 8 0 4 -12 8 -26 9 -15 0
-30 7 -35 15 -6 9 -9 9 -9 1 0 -9 -10 -9 -39 2 -43 15 -93 24 -216 40 -16 2
-30 4 -30 5 0 5 -323 19 -328 14z m155 -1352 c7 -7 9 -12 5 -12 -4 0 -9 0 -12
0 -3 0 -21 -7 -41 -15 -20 -8 -40 -12 -46 -9 -5 3 -20 -4 -32 -15 -27 -25 -56
-19 -51 10 4 22 1 23 -25 9 -16 -8 -18 -8 -14 5 3 8 10 12 15 9 5 -3 9 -1 9 4
0 12 32 11 49 -2 12 -9 14 -8 9 5 -4 9 -1 16 6 16 14 0 18 -26 4 -28 -4 -1
-12 -3 -18 -4 -5 -1 -15 -3 -20 -4 -7 -1 -6 -6 1 -14 10 -10 17 -9 36 9 13 12
23 26 23 33 0 11 34 10 46 -2 4 -3 -3 -5 -15 -2 -11 2 -21 0 -21 -6 0 -7 38
-6 48 2 1 1 6 2 11 3 5 0 13 4 17 8 3 4 -3 6 -15 3 -11 -2 -21 0 -21 6 0 12
37 6 52 -9z m172 -7 c-4 -8 -11 -12 -16 -9 -6 4 -5 10 3 15 19 12 19 11 13 -6z
m-399 -14 c-3 -6 -11 -9 -16 -6 -8 6 -13 -8 -10 -27 0 -5 -4 -8 -10 -8 -6 0
-9 7 -6 14 4 10 1 13 -8 9 -8 -3 -13 -9 -10 -14 3 -4 -3 -13 -14 -19 -24 -12
-40 5 -21 23 10 9 12 8 7 -5 -8 -24 0 -23 12 1 18 32 -22 20 -56 -19 -26 -30
-33 -32 -47 -21 -9 7 -13 17 -10 22 10 17 -16 9 -36 -11 -12 -12 -20 -15 -20
-7 0 8 -4 7 -10 -3 -6 -10 -10 -11 -10 -2 0 22 -2 27 -12 40 -7 8 -7 12 1 12
6 0 11 -6 11 -12 0 -9 4 -8 10 2 8 13 10 13 10 1 0 -11 4 -10 13 4 9 12 16 14
21 7 4 -6 13 -9 20 -6 8 3 17 1 21 -5 3 -6 11 -11 17 -11 6 0 5 7 -3 17 -8 9
-9 14 -2 10 6 -4 14 -1 17 5 5 10 7 10 12 0 5 -10 9 -10 20 -1 8 7 17 9 21 6
3 -4 13 -1 21 6 13 9 14 9 8 0 -4 -7 -2 -13 3 -13 6 0 11 4 11 9 0 6 9 8 20 6
11 -2 20 1 20 7 0 6 3 9 6 5 3 -3 3 -11 -1 -16z m299 7 c-3 -4 -9 -8 -15 -8
-5 0 -9 4 -9 8 0 5 7 9 15 9 8 0 12 -4 9 -9z m776 2 c0 -5 -2 -10 -4 -10 -3 0
-8 5 -11 10 -3 6 -1 10 4 10 6 0 11 -4 11 -10z m-1415 -79 c3 -6 -4 -15 -15
-21 -19 -10 -20 -10 -8 9 15 24 15 24 23 12z m-2035 -91 c0 -5 -5 -10 -11 -10
-5 0 -7 5 -4 10 3 6 8 10 11 10 2 0 4 -4 4 -10z m1230 -12 c0 -4 -4 -8 -9 -8
-6 0 -12 4 -15 8 -3 5 1 9 9 9 8 0 15 -4 15 -9z m40 8 c0 -3 -4 -8 -10 -11 -5
-3 -10 -1 -10 4 0 6 5 11 10 11 6 0 10 -2 10 -4z m72 -59 c8 -2 9 -8 4 -13 -5
-5 -11 -4 -13 4 -3 6 -9 12 -14 12 -6 0 -7 -6 -3 -12 4 -7 -1 -6 -11 4 -9 9
-14 21 -11 27 5 8 12 7 21 -3 8 -8 20 -16 27 -19z"/>
<path d="M2506 1614 c-3 -8 -10 -13 -15 -9 -5 3 -12 1 -15 -4 -8 -12 13 -9 38
6 11 6 14 13 8 17 -5 3 -13 -1 -16 -10z"/>
<path d="M2593 1623 c4 -3 -1 -16 -10 -27 -18 -21 -18 -21 5 -2 24 21 29 36
10 36 -6 0 -8 -3 -5 -7z"/>
<path d="M2553 1605 c0 -8 4 -12 9 -9 5 3 6 10 3 15 -9 13 -12 11 -12 -6z"/>
<path d="M3716 2907 c3 -10 9 -15 12 -12 3 3 0 11 -7 18 -10 9 -11 8 -5 -6z"/>
<path d="M4255 1879 c-4 -6 -5 -12 -2 -15 2 -3 7 2 10 11 7 17 1 20 -8 4z"/>
<path d="M3621 1742 c0 -7 -5 -11 -10 -8 -12 8 -33 -19 -23 -29 4 -4 0 -6 -8
-3 -8 3 -15 10 -15 16 0 7 -3 12 -7 12 -5 0 -13 0 -19 0 -6 0 -8 -8 -5 -17 5
-15 3 -14 -10 2 -13 15 -15 16 -11 3 4 -11 -3 -22 -20 -33 -23 -15 -25 -15
-20 -2 4 12 2 14 -10 10 -10 -4 -14 -2 -10 4 8 13 -20 46 -35 41 -13 -5 -12
-22 3 -27 7 -2 9 1 4 9 -6 9 -4 11 4 6 9 -6 8 -13 -5 -27 -10 -11 -12 -19 -6
-19 7 0 12 5 12 12 0 6 14 -1 32 -18 17 -16 29 -24 26 -19 -3 6 5 18 17 27 23
17 25 17 53 -7 17 -14 38 -25 48 -25 13 1 8 6 -13 15 -17 7 -37 24 -44 37 -11
22 -11 22 7 6 10 -9 26 -18 34 -20 8 -2 19 -7 23 -13 5 -6 6 -2 3 8 -4 12 -2
17 6 14 7 -2 12 -13 10 -23 -2 -18 -2 -18 8 -1 6 9 16 17 22 17 7 0 7 -5 -1
-14 -13 -15 1 -32 18 -21 5 3 12 1 15 -4 4 -5 -3 -13 -15 -16 -11 -4 -18 -9
-16 -12 3 -2 15 0 26 6 27 15 17 44 -13 35 -19 -6 -19 -5 -7 10 8 9 20 15 26
12 7 -2 18 0 26 5 12 8 12 10 -1 18 -8 5 -18 7 -24 4 -5 -4 -7 1 -3 11 5 14 3
15 -13 6 -15 -8 -21 -6 -30 7 -11 17 -11 17 -6 1 3 -10 1 -18 -4 -18 -5 0 -11
8 -13 18 -3 9 -5 11 -6 4z m26 -31 c23 4 43 -2 38 -11 -5 -8 -11 -7 -21 1 -11
9 -14 9 -14 -1 0 -10 -3 -10 -15 0 -12 10 -18 10 -29 1 -13 -11 -15 -4 -7 27
1 1 10 -2 21 -8 10 -6 23 -10 27 -9z"/>
<path d="M3460 1723 c0 -1 8 -7 18 -12 13 -7 19 -6 19 2 0 7 -9 13 -19 13 -10
0 -18 -1 -18 -3z"/>
<path d="M3204 1709 c-6 -11 -6 -10 27 -14 15 -2 26 1 26 8 0 14 -45 19 -53 6z"/>
<path d="M3339 1716 c-1 -3 -2 -9 -3 -13 -1 -5 -5 -13 -9 -19 -4 -7 0 -14 8
-17 9 -4 12 -1 8 9 -3 10 0 12 10 9 8 -4 17 1 21 12 4 9 4 14 0 10 -4 -4 -13
-2 -21 4 -7 6 -14 9 -14 5z"/>
<path d="M3105 1690 c-3 -6 1 -7 9 -4 18 7 21 14 7 14 -6 0 -13 -4 -16 -10z"/>
<path d="M3227 1683 c-3 -5 -2 -15 3 -23 11 -17 1 -42 -14 -33 -6 3 -7 2 -3
-2 14 -16 36 -14 30 3 -4 10 -2 13 5 8 21 -12 24 16 4 36 -11 11 -22 16 -25
11z m31 -39 c-4 -3 -12 5 -18 18 -12 22 -12 22 6 6 10 -10 15 -20 12 -24z"/>
<path d="M3514 1668 c-4 -6 -3 -8 4 -4 6 3 15 -2 21 -11 9 -16 10 -16 11 -2 0
20 -27 33 -36 17z"/>
<path d="M3430 1660 c0 -5 5 -10 10 -10 6 0 10 5 10 10 0 6 -4 10 -10 10 -5 0
-10 -4 -10 -10z"/>
<path d="M3855 1660 c-3 -6 1 -7 9 -4 18 7 21 14 7 14 -6 0 -13 -4 -16 -10z"/>
<path d="M3150 1639 c0 -5 5 -7 12 -3 7 5 9 2 6 -8 -4 -8 0 -15 7 -15 10 0 11
5 4 19 -11 20 -29 24 -29 7z"/>
<path d="M3290 1632 c9 -19 30 -23 30 -5 0 4 -3 3 -7 0 -3 -4 -12 1 -20 11
-13 15 -13 15 -3 -6z"/>
<path d="M3339 1648 c0 -2 -2 -14 -5 -28 -3 -18 -2 -21 5 -10 5 8 7 18 5 22
-3 4 4 8 16 8 13 0 19 -4 14 -12 -4 -7 -3 -8 5 -4 16 10 4 26 -20 26 -10 0
-19 -1 -20 -2z"/>
<path d="M3415 1626 c0 -14 5 -22 12 -19 9 4 10 10 2 24 -13 24 -14 24 -14 -5z"/>
<path d="M3459 1648 c-7 -24 -5 -36 6 -32 9 4 12 -4 10 -26 -1 -16 1 -32 4
-35 4 -2 7 12 6 32 0 20 -6 38 -13 41 -7 2 -10 8 -6 13 3 5 3 9 0 9 -3 0 -6
-1 -7 -2z"/>
<path d="M3495 1641 c-3 -5 0 -13 6 -17 8 -5 9 -3 4 6 -6 10 -4 12 8 7 10 -3
17 -2 17 3 0 13 -27 13 -35 1z"/>
<path d="M3630 1640 c0 -5 5 -10 10 -10 6 0 10 5 10 10 0 6 -4 10 -10 10 -5 0
-10 -4 -10 -10z"/>
<path d="M3091 1624 c0 -11 3 -14 6 -6 3 7 2 16 -1 19 -3 4 -6 -2 -5 -13z"/>
<path d="M3071 1614 c0 -11 3 -14 6 -6 3 7 2 16 -1 19 -3 4 -6 -2 -5 -13z"/>
<path d="M3535 1619 c-6 -8 -4 -10 5 -4 10 6 12 4 6 -11 -6 -15 -5 -17 5 -6 9
9 10 15 2 23 -8 8 -13 7 -18 -2z"/>
<path d="M3600 1626 c0 -2 7 -7 16 -10 8 -3 12 -2 9 4 -6 10 -25 14 -25 6z"/>
<path d="M3700 1620 c-8 -5 -10 -10 -5 -10 6 0 17 5 25 10 8 5 11 10 5 10 -5
0 -17 -5 -25 -10z"/>
<path d="M2839 1593 c-11 -15 -11 -16 1 -6 11 10 16 9 26 -5 7 -9 14 -15 17
-12 2 3 -3 13 -13 23 -16 17 -18 17 -31 0z"/>
<path d="M3135 1599 c-4 -6 -5 -12 -2 -15 2 -3 7 2 10 11 7 17 1 20 -8 4z"/>
<path d="M3195 1600 c-3 -5 -1 -10 4 -10 6 0 11 5 11 10 0 6 -2 10 -4 10 -3 0
-8 -4 -11 -10z"/>
<path d="M3350 1600 c0 -5 8 -14 18 -19 14 -7 19 -6 19 4 0 7 -7 11 -15 7 -10
-3 -13 -1 -8 6 4 7 2 12 -3 12 -6 0 -11 -4 -11 -10z"/>
<path d="M3590 1600 c0 -5 5 -10 10 -10 6 0 10 5 10 10 0 6 -4 10 -10 10 -5 0
-10 -4 -10 -10z"/>
<path d="M3725 1600 c-3 -5 -1 -18 5 -27 9 -15 10 -14 4 6 -4 17 -3 21 6 16 9
-5 11 -4 6 3 -9 15 -13 15 -21 2z"/>
<path d="M3770 1600 c-9 -6 -10 -10 -3 -10 6 0 15 5 18 10 8 12 4 12 -15 0z"/>
<path d="M2757 1586 c-4 -10 -3 -15 3 -11 6 3 10 1 10 -6 0 -7 3 -10 6 -6 3 3
2 13 -4 22 -8 16 -9 16 -15 1z"/>
<path d="M2898 1588 c5 -5 16 -8 23 -6 8 3 3 7 -10 11 -17 4 -21 3 -13 -5z"/>
<path d="M3155 1591 c-3 -5 0 -13 6 -17 7 -4 9 -3 5 4 -3 5 0 13 6 15 9 4 10
6 1 6 -6 1 -14 -3 -18 -8z"/>
<path d="M3251 1584 c0 -11 3 -14 6 -6 3 7 2 16 -1 19 -3 4 -6 -2 -5 -13z"/>
<path d="M3297 1581 c-4 -17 -3 -21 5 -13 5 5 8 16 6 23 -3 8 -7 3 -11 -10z"/>
<path d="M3677 1593 c-11 -11 -8 -20 7 -20 8 0 12 6 9 14 -6 15 -7 15 -16 6z"/>
<path d="M3789 1583 c-13 -16 -12 -17 4 -4 9 7 17 15 17 17 0 8 -8 3 -21 -13z"/>
<path d="M2322 1583 c1 -4 -3 -18 -10 -30 -7 -13 -8 -23 -3 -23 5 0 12 6 14
13 4 10 6 10 6 0 1 -7 6 -13 12 -13 8 0 8 4 -1 15 -6 8 -9 19 -6 24 4 5 2 13
-4 16 -6 4 -9 3 -8 -2z"/>
<path d="M3050 1580 c0 -5 5 -10 10 -10 6 0 10 5 10 10 0 6 -4 10 -10 10 -5 0
-10 -4 -10 -10z"/>
<path d="M3086 1581 c-3 -5 1 -11 9 -14 9 -4 12 -1 8 9 -6 16 -10 17 -17 5z"/>
<path d="M3330 1581 c0 -6 4 -13 10 -16 6 -3 7 1 4 9 -7 18 -14 21 -14 7z"/>
<path d="M3504 1569 c0 -9 5 -15 11 -12 7 2 12 10 12 17 0 7 -5 13 -12 13 -6
0 -11 -8 -11 -18z"/>
<path d="M3015 1570 c-3 -6 1 -7 9 -4 18 7 21 14 7 14 -6 0 -13 -4 -16 -10z"/>
<path d="M2593 1555 c-3 -9 -3 -19 1 -22 3 -4 6 1 6 11 0 10 5 14 12 10 7 -4
8 -3 4 4 -10 16 -15 15 -23 -3z"/>
<path d="M2814 1559 c-4 -7 -3 -9 4 -5 5 3 13 0 15 -6 4 -9 6 -10 6 -1 1 17
-16 25 -25 12z"/>
<path d="M3548 1548 c2 -10 6 -18 7 -18 1 0 5 8 7 18 3 11 0 19 -7 19 -7 0
-10 -8 -7 -19z"/>
<path d="M2517 1545 c-4 -8 -3 -16 1 -19 4 -3 9 4 9 15 2 23 -3 25 -10 4z"/>
<path d="M2670 1550 c-9 -6 -10 -10 -3 -10 6 0 15 5 18 10 8 12 4 12 -15 0z"/>
<path d="M2706 1543 c-6 -14 -5 -15 5 -6 7 7 10 15 7 18 -3 3 -9 -2 -12 -12z"/>
<path d="M2753 1545 c0 -8 4 -12 9 -9 5 3 6 10 3 15 -9 13 -12 11 -12 -6z"/>
<path d="M3575 1549 c-4 -6 -5 -12 -2 -15 2 -3 7 2 10 11 7 17 1 20 -8 4z"/>
<path d="M2851 1534 c0 -11 3 -14 6 -6 3 7 2 16 -1 19 -3 4 -6 -2 -5 -13z"/>
<path d="M3095 1541 c-3 -5 -2 -12 3 -15 5 -3 9 1 9 9 0 17 -3 19 -12 6z"/>
<path d="M3310 1541 c0 -5 8 -8 18 -6 9 1 24 -2 32 -8 12 -9 13 -9 3 3 -15 16
-53 24 -53 11z"/>
<path d="M3432 1545 c3 -3 16 -8 28 -10 12 -2 20 -1 16 2 -4 4 -16 8 -28 10
-12 2 -19 1 -16 -2z"/>
<path d="M3516 1541 c-3 -5 2 -15 12 -22 15 -12 16 -12 5 2 -7 9 -10 19 -6 22
3 4 4 7 0 7 -3 0 -8 -4 -11 -9z"/>
<path d="M3603 1538 c-11 -19 -12 -37 -3 -43 5 -3 7 3 5 12 -1 10 2 24 8 31 5
6 7 12 4 12 -3 0 -9 -6 -14 -12z"/>
<path d="M2540 1536 c0 -2 7 -7 16 -10 8 -3 12 -2 9 4 -6 10 -25 14 -25 6z"/>
<path d="M3034 1505 c0 -19 3 -32 5 -29 8 7 9 54 2 59 -4 2 -7 -12 -7 -30z"/>
<path d="M2226 1513 c-8 -25 -7 -33 1 -30 5 1 7 8 5 14 -2 8 4 11 15 7 11 -3
14 -2 8 3 -5 4 -13 12 -17 16 -3 5 -9 0 -12 -10z"/>
<path d="M2390 1520 c0 -5 5 -10 10 -10 6 0 10 5 10 10 0 6 -4 10 -10 10 -5 0
-10 -4 -10 -10z"/>
<path d="M2497 1509 c4 -13 8 -18 11 -10 2 7 -1 18 -6 23 -8 8 -9 4 -5 -13z"/>
<path d="M2802 1518 c-15 -15 -43 -19 -57 -8 -8 6 -12 5 -12 -4 0 -19 53 -14
74 7 9 9 15 17 12 17 -3 0 -10 -5 -17 -12z"/>
<path d="M2940 1526 c0 -2 8 -10 18 -17 15 -13 16 -12 3 4 -13 16 -21 21 -21
13z"/>
<path d="M3060 1526 c0 -2 8 -10 18 -17 15 -13 16 -12 3 4 -13 16 -21 21 -21
13z"/>
<path d="M3397 1508 c19 -21 31 -25 14 -5 -6 8 -9 16 -6 19 3 2 -2 5 -10 5
-13 0 -13 -3 2 -19z"/>
<path d="M135 1509 c-4 -6 -5 -12 -2 -15 2 -3 7 2 10 11 7 17 1 20 -8 4z"/>
<path d="M2290 1509 c0 -5 -5 -7 -11 -3 -8 4 -8 0 0 -15 14 -25 23 -28 14 -4
-4 11 -3 14 5 9 8 -5 10 -2 6 8 -7 18 -14 21 -14 5z"/>
<path d="M2470 1513 c5 -2 8 -8 5 -13 -3 -4 3 -14 13 -21 16 -13 16 -13 2 5
-8 11 -14 22 -12 25 2 3 -1 6 -7 7 -7 2 -8 1 -1 -3z"/>
<path d="M2570 1510 c-9 -6 -10 -10 -3 -10 6 0 15 5 18 10 8 12 4 12 -15 0z"/>
<path d="M2598 1496 c-13 -18 -14 -23 -2 -23 8 0 12 3 9 5 -3 3 0 11 7 19 6 7
9 15 7 17 -2 2 -12 -6 -21 -18z"/>
<path d="M2695 1510 c-4 -6 -15 -8 -26 -5 -10 4 -19 2 -19 -3 0 -4 13 -8 28
-8 17 0 29 5 29 13 0 16 -4 16 -12 3z"/>
<path d="M3182 1504 c10 -10 20 -16 22 -13 3 3 -5 11 -17 18 -21 13 -21 12 -5
-5z"/>
<path d="M3450 1516 c0 -2 8 -10 18 -17 15 -13 16 -12 3 4 -13 16 -21 21 -21
13z"/>
<path d="M3718 1496 c-13 -18 -14 -23 -2 -23 8 0 12 3 9 5 -3 3 0 11 7 19 6 7
9 15 7 17 -2 2 -12 -6 -21 -18z"/>
<path d="M195 1500 c-3 -5 -1 -10 4 -10 6 0 11 5 11 10 0 6 -2 10 -4 10 -3 0
-8 -4 -11 -10z"/>
<path d="M2424 1494 c-18 -15 -18 -15 2 -5 12 6 25 7 29 3 5 -4 5 -1 1 6 -9
15 -8 15 -32 -4z"/>
<path d="M2830 1503 c0 -6 8 -17 18 -24 16 -13 16 -13 2 6 -8 11 -16 22 -17
24 -2 2 -3 0 -3 -6z"/>
<path d="M2913 1492 c-8 -14 -8 -19 1 -19 7 0 13 9 13 19 1 10 1 18 0 18 -1 0
-7 -8 -14 -18z"/>
<path d="M3646 1501 c8 -9 43 -11 48 -3 2 4 -9 7 -25 7 -15 1 -26 -1 -23 -4z"/>
<path d="M232 1491 c-11 -6 -9 -9 6 -13 15 -4 19 -2 15 8 -6 16 -4 16 -21 5z"/>
<path d="M278 1488 c-8 -20 17 -18 35 2 10 12 9 12 -5 2 -13 -10 -17 -10 -20
0 -3 8 -6 7 -10 -4z"/>
<path d="M2360 1496 c0 -2 7 -7 16 -10 8 -3 12 -2 9 4 -6 10 -25 14 -25 6z"/>
<path d="M3276 1487 c3 -10 9 -15 12 -12 3 3 0 11 -7 18 -10 9 -11 8 -5 -6z"/>
<path d="M3436 1487 c3 -10 9 -15 12 -12 3 3 0 11 -7 18 -10 9 -11 8 -5 -6z"/>
<path d="M393 1480 c-28 -11 -29 -16 -3 -16 11 0 20 4 20 9 0 4 5 5 12 1 7 -4
8 -3 4 4 -4 7 -8 12 -9 11 -1 0 -12 -4 -24 -9z"/>
<path d="M3079 1473 c-13 -16 -12 -17 4 -4 16 13 21 21 13 21 -2 0 -10 -8 -17
-17z"/>
<path d="M3523 1478 c-11 -19 -13 -39 -1 -32 5 3 7 9 4 12 -3 3 -1 11 5 19 6
7 9 13 6 13 -3 0 -9 -6 -14 -12z"/>
<path d="M434 1453 c-14 -23 -15 -26 -1 -15 9 8 22 10 29 6 10 -6 11 -5 1 8
-7 8 -10 18 -6 21 3 4 4 7 1 7 -3 0 -14 -12 -24 -27z"/>
<path d="M1116 1471 c-4 -5 -2 -12 3 -15 5 -4 12 -2 15 3 4 5 2 12 -3 15 -5 4
-12 2 -15 -3z"/>
<path d="M1241 1464 c7 -9 5 -15 -8 -23 -16 -9 -16 -10 4 -8 15 1 20 7 17 20
-2 11 2 17 9 14 7 -2 11 -13 9 -23 -2 -17 -2 -17 8 -2 6 9 17 15 25 12 8 -4
15 -1 15 4 0 16 -18 24 -25 12 -4 -7 -11 -7 -18 -2 -7 5 -20 9 -29 9 -13 0
-15 -4 -7 -13z"/>
<path d="M1344 1463 c-10 -7 -13 -13 -8 -13 6 0 15 5 22 12 9 9 12 9 12 0 0
-6 -8 -16 -17 -21 -10 -6 -13 -11 -7 -11 6 0 14 3 18 7 4 4 21 8 37 9 24 1 27
-1 18 -12 -6 -7 -9 -19 -6 -26 4 -9 6 -8 6 3 1 9 7 22 15 28 11 9 21 6 47 -16
32 -26 33 -26 12 -2 -13 14 -23 30 -23 36 0 15 -28 24 -35 12 -4 -5 -12 -6
-18 -2 -20 12 -53 11 -73 -4z m66 -5 c0 -4 -4 -8 -9 -8 -6 0 -12 4 -15 8 -3 5
1 9 9 9 8 0 15 -4 15 -9z m44 4 c3 -5 -1 -9 -9 -9 -8 0 -12 4 -9 9 3 4 7 8 9
8 2 0 6 -4 9 -8z"/>
<path d="M2190 1473 c5 -2 8 -9 4 -14 -3 -5 0 -9 6 -9 15 0 7 23 -8 26 -7 1
-8 0 -2 -3z"/>
<path d="M2435 1470 c-4 -6 -12 -7 -18 -4 -7 4 -8 3 -4 -1 13 -15 34 -14 34 1
0 17 -4 18 -12 4z"/>
<path d="M2650 1476 c0 -2 8 -10 18 -17 15 -13 16 -12 3 4 -13 16 -21 21 -21
13z"/>
<path d="M2695 1471 c-3 -5 -2 -12 3 -15 5 -3 9 1 9 9 0 17 -3 19 -12 6z"/>
<path d="M2733 1467 c0 -8 6 -14 14 -14 9 0 10 4 2 14 -6 7 -12 13 -14 13 -1
0 -2 -6 -2 -13z"/>
<path d="M3113 1465 c0 -8 4 -15 9 -15 4 0 8 4 8 9 0 6 -4 12 -8 15 -5 3 -9
-1 -9 -9z"/>
<path d="M3217 1473 c-10 -9 -9 -23 1 -23 5 0 9 7 9 15 0 17 -1 18 -10 8z"/>
<path d="M3254 1466 c1 -8 5 -18 8 -22 4 -3 5 1 4 10 -1 8 -5 18 -8 22 -4 3
-5 -1 -4 -10z"/>
<path d="M3377 1473 c-10 -9 -9 -23 1 -23 5 0 9 7 9 15 0 17 -1 18 -10 8z"/>
<path d="M306 1462 c-2 -4 4 -8 14 -8 10 0 16 4 14 8 -3 4 -9 8 -14 8 -5 0
-11 -4 -14 -8z"/>
<path d="M610 1460 c0 -5 5 -10 11 -10 5 0 7 5 4 10 -3 6 -8 10 -11 10 -2 0
-4 -4 -4 -10z"/>
<path d="M710 1459 c0 -3 11 -6 25 -6 14 0 25 3 25 6 0 4 -11 7 -25 7 -14 0
-25 -3 -25 -7z"/>
<path d="M801 1450 c-22 -19 -23 -20 -3 -17 12 2 25 6 28 10 4 4 14 1 23 -5
10 -8 9 -4 -3 10 -11 12 -20 22 -20 22 -1 -1 -12 -10 -25 -20z"/>
<path d="M865 1462 c-2 -3 1 -14 7 -26 6 -11 10 -22 9 -24 -2 -2 0 -6 3 -9 3
-3 3 7 0 22 l-5 28 28 -18 c19 -13 24 -14 16 -4 -10 12 -10 18 -1 27 9 9 9 12
0 12 -7 0 -12 -4 -12 -10 0 -5 -5 -10 -11 -10 -5 0 -8 4 -5 8 5 9 -20 12 -29
4z"/>
<path d="M1080 1455 c-7 -9 -10 -18 -6 -22 3 -3 6 -1 6 6 0 9 6 9 23 1 20 -10
20 -10 5 3 -10 8 -15 17 -11 20 3 4 4 7 1 7 -3 0 -11 -7 -18 -15z"/>
<path d="M1535 1460 c3 -5 8 -10 11 -10 2 0 4 5 4 10 0 6 -5 10 -11 10 -5 0
-7 -4 -4 -10z"/>
<path d="M2525 1459 c-3 -4 2 -6 10 -5 21 3 28 13 10 13 -9 0 -18 -4 -20 -8z"/>
<path d="M2816 1458 c3 -5 10 -6 15 -3 13 9 11 12 -6 12 -8 0 -12 -4 -9 -9z"/>
<path d="M2935 1459 c-3 -4 2 -6 10 -5 21 3 28 13 10 13 -9 0 -18 -4 -20 -8z"/>
<path d="M547 1446 c-4 -10 1 -12 14 -9 23 6 24 9 5 16 -8 3 -17 0 -19 -7z"/>
<path d="M2159 1447 c-15 -11 -14 -14 10 -31 26 -20 26 -20 9 0 -14 16 -15 23
-6 32 15 15 8 15 -13 -1z"/>
<path d="M3473 1447 c0 -8 6 -14 14 -14 9 0 10 4 2 14 -6 7 -12 13 -14 13 -1
0 -2 -6 -2 -13z"/>
<path d="M3634 1435 c2 -30 20 -52 31 -36 3 7 1 10 -6 9 -8 -2 -13 6 -14 19 0
12 -3 24 -6 27 -3 4 -5 -5 -5 -19z"/>
<path d="M256 1433 c-6 -14 -5 -15 5 -6 7 7 10 15 7 18 -3 3 -9 -2 -12 -12z"/>
<path d="M693 1438 c1 -7 -3 -12 -9 -11 -6 1 -11 -5 -11 -13 0 -12 4 -11 18 2
10 9 16 21 13 25 -8 13 -14 11 -11 -3z"/>
<path d="M990 1441 c0 -6 4 -13 10 -16 6 -3 7 1 4 9 -7 18 -14 21 -14 7z"/>
<path d="M1590 1439 c0 -5 5 -7 10 -4 6 3 10 8 10 11 0 2 -4 4 -10 4 -5 0 -10
-5 -10 -11z"/>
<path d="M2509 1437 c6 -8 7 -18 3 -22 -4 -5 -1 -5 6 -1 10 6 10 11 1 22 -6 8
-14 14 -16 14 -3 0 0 -6 6 -13z"/>
<path d="M3596 1433 c-6 -14 -5 -15 5 -6 7 7 10 15 7 18 -3 3 -9 -2 -12 -12z"/>
<path d="M731 1433 c-2 -20 16 -24 30 -5 13 15 12 16 -3 4 -13 -10 -17 -10
-21 0 -4 9 -6 9 -6 1z"/>
<path d="M1293 1423 c1 -16 4 -19 14 -12 7 6 18 7 24 3 8 -5 9 -3 5 5 -5 7
-14 10 -21 7 -8 -3 -16 0 -18 7 -3 7 -4 2 -4 -10z"/>
<path d="M2255 1429 c-4 -6 -5 -12 -2 -15 2 -3 7 2 10 11 7 17 1 20 -8 4z"/>
<path d="M640 1420 c-9 -6 -10 -10 -3 -10 6 0 15 5 18 10 8 12 4 12 -15 0z"/>
<path d="M1093 1411 c0 -11 5 -18 9 -15 4 3 5 11 1 19 -7 21 -12 19 -10 -4z"/>
<path d="M1370 1419 c0 -5 5 -7 10 -4 6 3 10 8 10 11 0 2 -4 4 -10 4 -5 0 -10
-5 -10 -11z"/>
<path d="M1435 1420 c-3 -6 1 -7 10 -4 11 5 14 2 9 -12 -5 -15 -4 -16 4 -4 11
15 7 30 -8 30 -5 0 -12 -4 -15 -10z"/>
<path d="M2105 1420 c-3 -6 1 -7 9 -4 18 7 21 14 7 14 -6 0 -13 -4 -16 -10z"/>
<path d="M2353 1415 c0 -8 4 -12 9 -9 5 3 6 10 3 15 -9 13 -12 11 -12 -6z"/>
<path d="M2380 1426 c0 -2 8 -10 18 -17 15 -13 16 -12 3 4 -13 16 -21 21 -21
13z"/>
<path d="M2460 1426 c0 -2 8 -10 18 -17 15 -13 16 -12 3 4 -13 16 -21 21 -21
13z"/>
<path d="M2537 1415 c-4 -8 -3 -16 1 -19 4 -3 9 4 9 15 2 23 -3 25 -10 4z"/>
<path d="M3025 1419 c-3 -4 2 -6 10 -5 21 3 28 13 10 13 -9 0 -18 -4 -20 -8z"/>
<path d="M3110 1425 c0 -7 30 -13 34 -7 3 4 -4 9 -15 9 -10 1 -19 0 -19 -2z"/>
<path d="M1053 1405 c0 -8 4 -12 9 -9 5 3 6 10 3 15 -9 13 -12 11 -12 -6z"/>
<path d="M815 1400 c-3 -5 -1 -10 4 -10 6 0 11 5 11 10 0 6 -2 10 -4 10 -3 0
-8 -4 -11 -10z"/>
<path d="M1615 1401 c-3 -5 0 -13 6 -17 8 -5 9 -3 4 6 -6 10 -3 12 13 8 12 -4
20 -2 16 3 -7 12 -31 12 -39 0z"/>
<path d="M2071 1387 c-13 -21 -12 -21 5 -5 10 10 16 20 13 22 -3 3 -11 -5 -18
-17z"/>
<path d="M2690 1399 c0 -5 5 -7 10 -4 6 3 10 8 10 11 0 2 -4 4 -10 4 -5 0 -10
-5 -10 -11z"/>
<path d="M2960 1400 c-9 -6 -10 -10 -3 -10 6 0 15 5 18 10 8 12 4 12 -15 0z"/>
<path d="M3235 1401 c-3 -5 -2 -12 3 -15 5 -3 9 1 9 9 0 17 -3 19 -12 6z"/>
<path d="M1515 1389 c-4 -6 -5 -12 -2 -15 2 -3 7 2 10 11 7 17 1 20 -8 4z"/>
<path d="M1739 1398 c-5 -9 -5 -48 -1 -43 6 6 11 45 5 45 -2 0 -4 -1 -4 -2z"/>
<path d="M2595 1391 c-3 -5 -2 -12 3 -15 5 -3 9 1 9 9 0 17 -3 19 -12 6z"/>
<path d="M2830 1396 c0 -2 8 -10 18 -17 15 -13 16 -12 3 4 -13 16 -21 21 -21
13z"/>
<path d="M2915 1389 c-4 -6 -5 -12 -2 -15 2 -3 7 2 10 11 7 17 1 20 -8 4z"/>
<path d="M3033 1385 c0 -8 4 -12 9 -9 5 3 6 10 3 15 -9 13 -12 11 -12 -6z"/>
<path d="M3069 1383 c-13 -16 -12 -17 4 -4 16 13 21 21 13 21 -2 0 -10 -8 -17
-17z"/>
<path d="M907 1379 c7 -7 15 -10 18 -7 3 3 -2 9 -12 12 -14 6 -15 5 -6 -5z"/>
<path d="M1675 1380 c3 -5 8 -10 11 -10 2 0 4 5 4 10 0 6 -5 10 -11 10 -5 0
-7 -4 -4 -10z"/>
<path d="M2116 1373 c-6 -14 -5 -15 5 -6 7 7 10 15 7 18 -3 3 -9 -2 -12 -12z"/>
<path d="M2369 1377 c6 -8 7 -18 3 -22 -4 -5 -1 -5 6 -1 10 6 10 11 1 22 -6 8
-14 14 -16 14 -3 0 0 -6 6 -13z"/>
<path d="M2414 1376 c1 -8 5 -18 8 -22 4 -3 5 1 4 10 -1 8 -5 18 -8 22 -4 3
-5 -1 -4 -10z"/>
<path d="M3336 1378 c3 -5 10 -6 15 -3 13 9 11 12 -6 12 -8 0 -12 -4 -9 -9z"/>
<path d="M1426 1362 c-3 -5 1 -9 9 -9 8 0 12 4 9 9 -3 4 -7 8 -9 8 -2 0 -6 -4
-9 -8z"/>
<path d="M2250 1359 c0 -5 5 -7 10 -4 6 3 10 8 10 11 0 2 -4 4 -10 4 -5 0 -10
-5 -10 -11z"/>
<path d="M2286 1362 c-3 -5 1 -9 9 -9 8 0 12 4 9 9 -3 4 -7 8 -9 8 -2 0 -6 -4
-9 -8z"/>
<path d="M2535 1360 c3 -5 8 -10 11 -10 2 0 4 5 4 10 0 6 -5 10 -11 10 -5 0
-7 -4 -4 -10z"/>
<path d="M3029 1343 c-13 -16 -12 -17 4 -4 9 7 17 15 17 17 0 8 -8 3 -21 -13z"/>
<path d="M3457 1353 c-10 -9 -9 -23 1 -23 5 0 9 7 9 15 0 17 -1 18 -10 8z"/>
<path d="M3513 1335 c0 -8 4 -12 9 -9 5 3 6 10 3 15 -9 13 -12 11 -12 -6z"/>
<path d="M2413 1315 c0 -8 4 -12 9 -9 5 3 6 10 3 15 -9 13 -12 11 -12 -6z"/>
<path d="M2574 1316 c1 -8 5 -18 8 -22 4 -3 5 1 4 10 -1 8 -5 18 -8 22 -4 3
-5 -1 -4 -10z"/>
<path d="M2656 1322 c-3 -4 4 -9 15 -9 23 -2 25 3 4 10 -8 4 -16 3 -19 -1z"/>
<path d="M3395 1323 c3 -3 0 -11 -5 -18 -7 -8 -5 -12 4 -12 14 0 16 22 3 32
-4 3 -5 2 -2 -2z"/>
<path d="M3420 1326 c0 -2 8 -10 18 -17 15 -13 16 -12 3 4 -13 16 -21 21 -21
13z"/>
<path d="M2370 1299 c0 -5 5 -7 10 -4 6 3 10 8 10 11 0 2 -4 4 -10 4 -5 0 -10
-5 -10 -11z"/>
<path d="M3079 1293 c-13 -16 -12 -17 4 -4 16 13 21 21 13 21 -2 0 -10 -8 -17
-17z"/>
<path d="M2614 1278 c-4 -7 -4 -10 1 -6 4 4 15 2 24 -5 14 -11 14 -10 2 6 -16
20 -18 21 -27 5z"/>
<path d="M3305 1280 c-3 -6 1 -7 9 -4 18 7 21 14 7 14 -6 0 -13 -4 -16 -10z"/>
<path d="M2915 1271 c-3 -5 -2 -12 3 -15 5 -3 9 1 9 9 0 17 -3 19 -12 6z"/>
<path d="M2270 1259 c0 -5 5 -7 10 -4 6 3 10 8 10 11 0 2 -4 4 -10 4 -5 0 -10
-5 -10 -11z"/>
<path d="M2575 1260 c-3 -5 -1 -10 4 -10 6 0 11 5 11 10 0 6 -2 10 -4 10 -3 0
-8 -4 -11 -10z"/>
<path d="M2694 1256 c1 -8 5 -18 8 -22 4 -3 5 1 4 10 -1 8 -5 18 -8 22 -4 3
-5 -1 -4 -10z"/>
<path d="M2734 1256 c1 -8 5 -18 8 -22 4 -3 5 1 4 10 -1 8 -5 18 -8 22 -4 3
-5 -1 -4 -10z"/>
<path d="M2814 1256 c1 -8 5 -18 8 -22 4 -3 5 1 4 10 -1 8 -5 18 -8 22 -4 3
-5 -1 -4 -10z"/>
<path d="M3359 1248 c-5 -18 -6 -38 -1 -34 7 8 12 36 6 36 -2 0 -4 -1 -5 -2z"/>
<path d="M2630 1218 c0 -4 4 -8 9 -8 6 0 12 4 15 8 3 5 -1 9 -9 9 -8 0 -15 -4
-15 -9z"/>
<path d="M2876 1213 c-6 -14 -5 -15 5 -6 7 7 10 15 7 18 -3 3 -9 -2 -12 -12z"/>
<path d="M2910 1226 c0 -2 7 -7 16 -10 8 -3 12 -2 9 4 -6 10 -25 14 -25 6z"/>
<path d="M3315 1211 c-3 -5 -2 -12 3 -15 5 -3 9 1 9 9 0 17 -3 19 -12 6z"/>
<path d="M2699 1208 c-5 -18 -6 -38 -1 -34 7 8 12 36 6 36 -2 0 -4 -1 -5 -2z"/>
<path d="M2446 1178 c3 -5 10 -6 15 -3 13 9 11 12 -6 12 -8 0 -12 -4 -9 -9z"/>
<path d="M2915 1181 c-3 -5 -2 -12 3 -15 5 -3 9 1 9 9 0 17 -3 19 -12 6z"/>
<path d="M2726 1158 c3 -5 10 -6 15 -3 13 9 11 12 -6 12 -8 0 -12 -4 -9 -9z"/>
<path d="M2776 1158 c3 -4 11 -5 19 -1 21 7 19 12 -4 10 -11 0 -18 -5 -15 -9z"/>
<path d="M2947 1139 c7 -7 15 -10 18 -7 3 3 -2 9 -12 12 -14 6 -15 5 -6 -5z"/>
<path d="M2436 1115 c-9 -26 -7 -32 5 -12 6 10 9 21 6 23 -2 3 -7 -2 -11 -11z"/>
<path d="M2815 1120 c3 -5 8 -10 11 -10 2 0 4 5 4 10 0 6 -5 10 -11 10 -5 0
-7 -4 -4 -10z"/>
<path d="M3306 1122 c-2 -4 4 -8 14 -8 10 0 16 4 14 8 -3 4 -9 8 -14 8 -5 0
-11 -4 -14 -8z"/>
<path d="M3149 1103 c-13 -16 -12 -17 4 -4 9 7 17 15 17 17 0 8 -8 3 -21 -13z"/>
<path d="M2550 1101 c0 -6 4 -13 10 -16 6 -3 7 1 4 9 -7 18 -14 21 -14 7z"/>
<path d="M2946 1098 c3 -4 9 -8 15 -8 5 0 9 4 9 8 0 5 -7 9 -15 9 -8 0 -12 -4
-9 -9z"/>
<path d="M2594 1082 c4 -3 14 -7 22 -8 9 -1 13 0 10 4 -4 3 -14 7 -22 8 -9 1
-13 0 -10 -4z"/>
<path d="M2736 1081 c-3 -5 2 -15 12 -22 15 -12 16 -12 5 2 -7 9 -10 19 -6 22
3 4 4 7 0 7 -3 0 -8 -4 -11 -9z"/>
<path d="M2816 1082 c-3 -4 4 -9 15 -9 23 -2 25 3 4 10 -8 4 -16 3 -19 -1z"/>
<path d="M2653 1051 c0 -11 5 -18 9 -15 4 3 5 11 1 19 -7 21 -12 19 -10 -4z"/>
<path d="M2946 1062 c-2 -4 4 -8 14 -8 10 0 16 4 14 8 -3 4 -9 8 -14 8 -5 0
-11 -4 -14 -8z"/>
<path d="M3027 1059 c7 -7 15 -10 18 -7 3 3 -2 9 -12 12 -14 6 -15 5 -6 -5z"/>
<path d="M2550 1057 c0 -2 6 -10 14 -16 11 -9 16 -9 22 1 4 7 4 10 -1 6 -4 -4
-14 -3 -22 3 -7 6 -13 9 -13 6z"/>
<path d="M3130 1039 c0 -5 5 -7 10 -4 6 3 10 8 10 11 0 2 -4 4 -10 4 -5 0 -10
-5 -10 -11z"/>
<path d="M2915 1031 c-3 -5 -2 -12 3 -15 5 -3 9 1 9 9 0 17 -3 19 -12 6z"/>
<path d="M2756 1015 c-9 -26 -7 -32 5 -12 6 10 9 21 6 23 -2 3 -7 -2 -11 -11z"/>
<path d="M3026 1022 c-3 -5 1 -9 9 -9 8 0 15 4 15 9 0 4 -4 8 -9 8 -6 0 -12
-4 -15 -8z"/>
</g>
</svg>
